<svg xmlns="http://www.w3.org/2000/svg" width="295" height="636" viewBox="0 0 295 636">
  <g id="Group_153" data-name="Group 153" transform="translate(-5720 -770)">
    <g id="Rectangle_55" data-name="Rectangle 55" transform="translate(5720 770)" fill="none" stroke="#000" stroke-width="5">
      <rect width="295" height="636" rx="39" stroke="none"/>
      <rect x="2.5" y="2.5" width="290" height="631" rx="36.5" fill="none"/>
    </g>
    <g id="Rectangle_56" data-name="Rectangle 56" transform="translate(5798 770)" stroke="#000" stroke-width="1">
      <path d="M0,0H141a0,0,0,0,1,0,0V15a15,15,0,0,1-15,15H15A15,15,0,0,1,0,15V0A0,0,0,0,1,0,0Z" stroke="none"/>
      <path d="M1,.5H140a.5.5,0,0,1,.5.5V15A14.5,14.5,0,0,1,126,29.5H15A14.5,14.5,0,0,1,.5,15V1A.5.5,0,0,1,1,.5Z" fill="none"/>
    </g>
  </g>
</svg>
